<?xml version="1.0" encoding="UTF-8" standalone="no"?>
<svg
   xmlns:dc="http://purl.org/dc/elements/1.1/"
   xmlns:cc="http://creativecommons.org/ns#"
   xmlns:rdf="http://www.w3.org/1999/02/22-rdf-syntax-ns#"
   xmlns:svg="http://www.w3.org/2000/svg"
   xmlns="http://www.w3.org/2000/svg"
   id="svg8"
   version="1.1"
   viewBox="0 0 20 20"
   height="20mm"
   width="20mm">
  <defs
     id="defs2" />
  <metadata
     id="metadata5">
    <rdf:RDF>
      <cc:Work
         rdf:about="">
        <dc:format>image/svg+xml</dc:format>
        <dc:type
           rdf:resource="http://purl.org/dc/dcmitype/StillImage" />
        <dc:title></dc:title>
      </cc:Work>
    </rdf:RDF>
  </metadata>
  <g
     transform="translate(0,-277)"
     id="layer1">
    <path
       transform="matrix(1.5858417,0.37309564,-0.37309564,1.5858417,100.641,-163.27198)"
       d="m 5.4122083,285.3738 -1.1715307,-4.91986 3.6749556,-3.4745 4.8464868,1.44535 1.17153,4.91986 -3.674955,3.4745 z"
       id="path4607"
       style="fill:#405a6f;fill-opacity:1;stroke:#53748f;stroke-width:0.69999999;stroke-linejoin:bevel;stroke-miterlimit:4;stroke-dasharray:none;stroke-opacity:1" />
    <g
       transform="matrix(1.14132,0,0,1.14132,-4.0320249,241.45369)"
       id="text12-6"
       style="font-style:normal;font-weight:normal;font-size:10.58333302px;line-height:1.25;font-family:sans-serif;letter-spacing:0px;word-spacing:0px;fill:#ccdff0;fill-opacity:1;stroke:none;stroke-width:0.26458332"
       aria-label="?">
      <path
         id="path14-4"
         style="font-style:normal;font-variant:normal;font-weight:normal;font-stretch:normal;font-family:Hack;-inkscape-font-specification:Hack;fill:#ccdff0;fill-opacity:1;stroke-width:0.26458332"
         d="m 11.529749,41.026699 q 0,-0.408243 0.155029,-0.754475 0.170532,-0.356568 0.594279,-0.780315 l 0.465088,-0.45992 q 0.149861,-0.149861 0.26355,-0.28422 0.118855,-0.139526 0.175699,-0.248047 0.124024,-0.227376 0.124024,-0.485758 0,-0.24288 -0.09302,-0.423747 -0.09302,-0.186035 -0.242879,-0.315226 -0.335897,-0.284221 -0.894002,-0.284221 -0.428915,0 -0.873332,0.1757 -0.232544,0.08785 -0.475423,0.222209 -0.237712,0.134358 -0.490926,0.310058 V 36.72722 q 0.496094,-0.299723 0.981852,-0.439249 0.465088,-0.144694 1.00769,-0.144694 0.516765,0 0.904338,0.134359 0.392741,0.129191 0.656291,0.361735 0.563273,0.501261 0.563273,1.312581 0,0.418579 -0.1757,0.749308 -0.186035,0.346232 -0.656291,0.81132 l -0.454752,0.444417 q -0.361735,0.346232 -0.454753,0.558106 -0.09819,0.201538 -0.09819,0.428914 v 0.656291 h -0.981852 z m 0.511596,3.219442 q -0.320394,0 -0.537435,-0.217041 -0.222208,-0.222209 -0.222208,-0.573608 0,-0.346232 0.217041,-0.563273 0.08785,-0.08785 0.222208,-0.149862 0.139527,-0.06718 0.315227,-0.06718 0.320393,0 0.537435,0.217041 0.217041,0.217041 0.217041,0.563273 0,0.351399 -0.217041,0.56844 -0.222209,0.222209 -0.532268,0.22221 z" />
    </g>
  </g>
</svg>
